<svg width="1122" height="184" viewBox="0 0 1122 184" fill="none" xmlns="http://www.w3.org/2000/svg">
<path d="M205 92C205 142.81 159.109 184 102.5 184C45.8908 184 0 142.81 0 92C0 41.1898 45.8908 0 102.5 0C159.109 0 205 41.1898 205 92Z" fill="black"/>
<path d="M655 92C655 142.81 609.109 184 552.5 184C495.891 184 450 142.81 450 92C450 41.1898 495.891 0 552.5 0C609.109 0 655 41.1898 655 92Z" fill="black"/>
<path d="M1122 92C1122 142.81 1076.11 184 1019.5 184C962.891 184 917 142.81 917 92C917 41.1898 962.891 0 1019.5 0C1076.11 0 1122 41.1898 1122 92Z" fill="black"/>
<path d="M51.8874 50.9H65.2399V55.485H57.1199V60.14H64.6274V64.7075H57.1199V74H51.8874V50.9Z" fill="white"/>
<path d="M68.7563 74V59.6325H74.0763V74H68.7563ZM71.4863 56.675C70.6463 56.675 69.9347 56.3833 69.3513 55.8C68.768 55.205 68.4763 54.4992 68.4763 53.6825C68.4763 52.8658 68.768 52.16 69.3513 51.565C69.9463 50.9583 70.658 50.655 71.4863 50.655C72.0347 50.655 72.5363 50.795 72.9913 51.075C73.4463 51.3433 73.8138 51.705 74.0938 52.16C74.3738 52.615 74.5138 53.1225 74.5138 53.6825C74.5138 54.4992 74.2163 55.205 73.6213 55.8C73.0263 56.3833 72.3147 56.675 71.4863 56.675Z" fill="white"/>
<path d="M76.5165 59.6325H78.9665V53.735H84.234V59.6325H87.454V64.0075H84.234V68.015C84.234 68.61 84.3215 69.0942 84.4965 69.4675C84.6715 69.8292 84.9923 70.01 85.459 70.01C85.774 70.01 86.0423 69.94 86.264 69.8C86.4857 69.66 86.6198 69.5667 86.6665 69.52L88.4865 73.3C88.4048 73.37 88.1482 73.4983 87.7165 73.685C87.2965 73.8717 86.7598 74.0408 86.1065 74.1925C85.4532 74.3442 84.724 74.42 83.919 74.42C82.484 74.42 81.2998 74.0175 80.3665 73.2125C79.4332 72.3958 78.9665 71.1417 78.9665 69.45V64.0075H76.5165V59.6325Z" fill="white"/>
<path d="M100.344 59.2125C101.347 59.2125 102.327 59.4167 103.284 59.825C104.24 60.2333 105.028 60.8808 105.646 61.7675C106.265 62.6425 106.574 63.7975 106.574 65.2325V74H101.236V66.1075C101.236 65.0808 100.991 64.3108 100.501 63.7975C100.011 63.2725 99.3697 63.01 98.5763 63.01C98.0513 63.01 97.5555 63.15 97.0888 63.43C96.6338 63.6983 96.2605 64.0833 95.9688 64.585C95.6888 65.075 95.5488 65.6408 95.5488 66.2825V74H90.2288V59.6325H95.5488V61.75C95.6888 61.365 95.9805 60.98 96.4238 60.595C96.8788 60.1983 97.4447 59.8717 98.1213 59.615C98.8097 59.3467 99.5505 59.2125 100.344 59.2125Z" fill="white"/>
<path d="M113.9 67.945C113.935 68.4583 114.099 68.9133 114.39 69.31C114.682 69.7067 115.084 70.0217 115.598 70.255C116.123 70.4767 116.741 70.5875 117.453 70.5875C118.129 70.5875 118.736 70.5175 119.273 70.3775C119.821 70.2375 120.294 70.0625 120.69 69.8525C121.099 69.6425 121.414 69.4267 121.635 69.205L123.7 72.495C123.409 72.81 122.994 73.1192 122.458 73.4225C121.933 73.7142 121.239 73.9533 120.375 74.14C119.512 74.3267 118.421 74.42 117.103 74.42C115.516 74.42 114.104 74.1225 112.868 73.5275C111.631 72.9325 110.657 72.0575 109.945 70.9025C109.234 69.7475 108.878 68.3358 108.878 66.6675C108.878 65.2675 109.181 64.0075 109.788 62.8875C110.406 61.7558 111.299 60.8633 112.465 60.21C113.632 59.545 115.038 59.2125 116.683 59.2125C118.246 59.2125 119.599 59.4983 120.743 60.07C121.898 60.6417 122.784 61.4933 123.403 62.625C124.033 63.745 124.348 65.145 124.348 66.825C124.348 66.9183 124.342 67.105 124.33 67.385C124.33 67.665 124.319 67.8517 124.295 67.945H113.9ZM119.343 65.1625C119.331 64.7892 119.232 64.4217 119.045 64.06C118.859 63.6867 118.579 63.3833 118.205 63.15C117.832 62.905 117.354 62.7825 116.77 62.7825C116.187 62.7825 115.691 62.8992 115.283 63.1325C114.886 63.3542 114.583 63.6458 114.373 64.0075C114.163 64.3692 114.046 64.7542 114.023 65.1625H119.343Z" fill="white"/>
<path d="M133.537 59.2125C134.482 59.2125 135.345 59.2942 136.127 59.4575C136.909 59.6092 137.562 59.7842 138.087 59.9825C138.624 60.1808 138.968 60.3442 139.119 60.4725L137.387 63.605C137.165 63.4417 136.751 63.2317 136.144 62.975C135.549 62.7183 134.884 62.59 134.149 62.59C133.589 62.59 133.117 62.6775 132.732 62.8525C132.347 63.0158 132.154 63.2783 132.154 63.64C132.154 64.0017 132.364 64.2933 132.784 64.515C133.216 64.725 133.834 64.9117 134.639 65.075C135.339 65.215 136.051 65.4367 136.774 65.74C137.498 66.0433 138.099 66.4925 138.577 67.0875C139.067 67.6708 139.312 68.4525 139.312 69.4325C139.312 70.4358 139.096 71.2642 138.664 71.9175C138.233 72.5708 137.661 73.0783 136.949 73.44C136.238 73.8017 135.468 74.0525 134.639 74.1925C133.811 74.3442 133.006 74.42 132.224 74.42C131.128 74.42 130.171 74.3208 129.354 74.1225C128.549 73.9242 127.896 73.6967 127.394 73.44C126.893 73.1833 126.543 72.9792 126.344 72.8275L128.059 69.3275C128.363 69.5842 128.859 69.8758 129.547 70.2025C130.235 70.5175 130.964 70.675 131.734 70.675C132.481 70.675 133.059 70.5642 133.467 70.3425C133.875 70.1208 134.079 69.8292 134.079 69.4675C134.079 69.1758 133.98 68.9425 133.782 68.7675C133.584 68.5925 133.304 68.4408 132.942 68.3125C132.58 68.1842 132.143 68.0675 131.629 67.9625C131.163 67.8692 130.667 67.7233 130.142 67.525C129.617 67.3267 129.121 67.0583 128.654 66.72C128.188 66.37 127.809 65.9325 127.517 65.4075C127.225 64.8825 127.079 64.2467 127.079 63.5C127.079 62.5433 127.389 61.75 128.007 61.12C128.625 60.49 129.424 60.0175 130.404 59.7025C131.384 59.3758 132.429 59.2125 133.537 59.2125Z" fill="white"/>
<path d="M148.576 59.2125C149.521 59.2125 150.384 59.2942 151.166 59.4575C151.948 59.6092 152.601 59.7842 153.126 59.9825C153.663 60.1808 154.007 60.3442 154.159 60.4725L152.426 63.605C152.204 63.4417 151.79 63.2317 151.184 62.975C150.589 62.7183 149.924 62.59 149.189 62.59C148.629 62.59 148.156 62.6775 147.771 62.8525C147.386 63.0158 147.194 63.2783 147.194 63.64C147.194 64.0017 147.404 64.2933 147.824 64.515C148.255 64.725 148.874 64.9117 149.679 65.075C150.379 65.215 151.09 65.4367 151.814 65.74C152.537 66.0433 153.138 66.4925 153.616 67.0875C154.106 67.6708 154.351 68.4525 154.351 69.4325C154.351 70.4358 154.135 71.2642 153.704 71.9175C153.272 72.5708 152.7 73.0783 151.989 73.44C151.277 73.8017 150.507 74.0525 149.679 74.1925C148.85 74.3442 148.045 74.42 147.264 74.42C146.167 74.42 145.21 74.3208 144.394 74.1225C143.589 73.9242 142.935 73.6967 142.434 73.44C141.932 73.1833 141.582 72.9792 141.384 72.8275L143.099 69.3275C143.402 69.5842 143.898 69.8758 144.586 70.2025C145.274 70.5175 146.004 70.675 146.774 70.675C147.52 70.675 148.098 70.5642 148.506 70.3425C148.914 70.1208 149.119 69.8292 149.119 69.4675C149.119 69.1758 149.019 68.9425 148.821 68.7675C148.623 68.5925 148.343 68.4408 147.981 68.3125C147.619 68.1842 147.182 68.0675 146.669 67.9625C146.202 67.8692 145.706 67.7233 145.181 67.525C144.656 67.3267 144.16 67.0583 143.694 66.72C143.227 66.37 142.848 65.9325 142.556 65.4075C142.264 64.8825 142.119 64.2467 142.119 63.5C142.119 62.5433 142.428 61.75 143.046 61.12C143.664 60.49 144.464 60.0175 145.444 59.7025C146.424 59.3758 147.468 59.2125 148.576 59.2125Z" fill="white"/>
<path d="M46.1737 82.9H55.5887C56.9303 82.9 58.1262 83.18 59.1762 83.74C60.2262 84.3 61.0545 85.1108 61.6612 86.1725C62.2795 87.2225 62.5887 88.4767 62.5887 89.935C62.5887 91.3933 62.3262 92.5892 61.8012 93.5225C61.2878 94.4442 60.6695 95.1383 59.9462 95.605C59.2228 96.06 58.552 96.3342 57.9337 96.4275L63.5512 106H57.6712L52.6662 96.83H51.4062V106H46.1737V82.9ZM51.4062 93.2075H53.7162C54.6495 93.2075 55.4662 92.98 56.1662 92.525C56.8662 92.07 57.2162 91.265 57.2162 90.11C57.2162 88.955 56.872 88.1558 56.1837 87.7125C55.4953 87.2575 54.6845 87.03 53.7512 87.03H51.4062V93.2075Z" fill="white"/>
<path d="M71.2441 99.945C71.2791 100.458 71.4424 100.913 71.7341 101.31C72.0257 101.707 72.4282 102.022 72.9416 102.255C73.4666 102.477 74.0849 102.588 74.7966 102.588C75.4732 102.588 76.0799 102.518 76.6166 102.378C77.1649 102.238 77.6374 102.063 78.0341 101.853C78.4424 101.643 78.7574 101.427 78.9791 101.205L81.0441 104.495C80.7524 104.81 80.3382 105.119 79.8016 105.423C79.2766 105.714 78.5824 105.953 77.7191 106.14C76.8557 106.327 75.7649 106.42 74.4466 106.42C72.8599 106.42 71.4482 106.122 70.2116 105.527C68.9749 104.932 68.0007 104.057 67.2891 102.902C66.5774 101.747 66.2216 100.336 66.2216 98.6675C66.2216 97.2675 66.5249 96.0075 67.1316 94.8875C67.7499 93.7558 68.6424 92.8633 69.8091 92.21C70.9757 91.545 72.3816 91.2125 74.0266 91.2125C75.5899 91.2125 76.9432 91.4983 78.0866 92.07C79.2416 92.6417 80.1282 93.4933 80.7466 94.625C81.3766 95.745 81.6916 97.145 81.6916 98.825C81.6916 98.9183 81.6857 99.105 81.6741 99.385C81.6741 99.665 81.6624 99.8517 81.6391 99.945H71.2441ZM76.6866 97.1625C76.6749 96.7892 76.5757 96.4217 76.3891 96.06C76.2024 95.6867 75.9224 95.3833 75.5491 95.15C75.1757 94.905 74.6974 94.7825 74.1141 94.7825C73.5307 94.7825 73.0349 94.8992 72.6266 95.1325C72.2299 95.3542 71.9266 95.6458 71.7166 96.0075C71.5066 96.3692 71.3899 96.7542 71.3666 97.1625H76.6866Z" fill="white"/>
<path d="M89.7607 106H84.4232V81.92H89.7607V106Z" fill="white"/>
<path d="M104.338 106V103.673C104.233 103.906 103.965 104.244 103.533 104.688C103.113 105.131 102.553 105.533 101.853 105.895C101.153 106.245 100.337 106.42 99.4032 106.42C98.0032 106.42 96.7782 106.082 95.7282 105.405C94.6782 104.717 93.8615 103.801 93.2782 102.658C92.6949 101.503 92.4032 100.225 92.4032 98.825C92.4032 97.425 92.6949 96.1533 93.2782 95.01C93.8615 93.855 94.6782 92.9333 95.7282 92.245C96.7782 91.5567 98.0032 91.2125 99.4032 91.2125C100.302 91.2125 101.089 91.3583 101.766 91.65C102.442 91.93 102.991 92.2683 103.411 92.665C103.831 93.05 104.122 93.4058 104.286 93.7325V91.6325H109.571V106H104.338ZM97.6182 98.825C97.6182 99.4783 97.7699 100.067 98.0732 100.592C98.3765 101.106 98.779 101.508 99.2807 101.8C99.794 102.092 100.36 102.238 100.978 102.238C101.62 102.238 102.186 102.092 102.676 101.8C103.166 101.508 103.551 101.106 103.831 100.592C104.122 100.067 104.268 99.4783 104.268 98.825C104.268 98.1717 104.122 97.5883 103.831 97.075C103.551 96.55 103.166 96.1417 102.676 95.85C102.186 95.5467 101.62 95.395 100.978 95.395C100.36 95.395 99.794 95.5467 99.2807 95.85C98.779 96.1417 98.3765 96.55 98.0732 97.075C97.7699 97.5883 97.6182 98.1717 97.6182 98.825Z" fill="white"/>
<path d="M111.722 91.6325H114.172V85.735H119.439V91.6325H122.659V96.0075H119.439V100.015C119.439 100.61 119.527 101.094 119.702 101.467C119.877 101.829 120.197 102.01 120.664 102.01C120.979 102.01 121.247 101.94 121.469 101.8C121.691 101.66 121.825 101.567 121.872 101.52L123.692 105.3C123.61 105.37 123.353 105.498 122.922 105.685C122.502 105.872 121.965 106.041 121.312 106.192C120.658 106.344 119.929 106.42 119.124 106.42C117.689 106.42 116.505 106.018 115.572 105.213C114.638 104.396 114.172 103.142 114.172 101.45V96.0075H111.722V91.6325Z" fill="white"/>
<path d="M129.896 99.945C129.931 100.458 130.095 100.913 130.386 101.31C130.678 101.707 131.081 102.022 131.594 102.255C132.119 102.477 132.737 102.588 133.449 102.588C134.126 102.588 134.732 102.518 135.269 102.378C135.817 102.238 136.29 102.063 136.686 101.853C137.095 101.643 137.41 101.427 137.631 101.205L139.696 104.495C139.405 104.81 138.991 105.119 138.454 105.423C137.929 105.714 137.235 105.953 136.371 106.14C135.508 106.327 134.417 106.42 133.099 106.42C131.512 106.42 130.101 106.122 128.864 105.527C127.627 104.932 126.653 104.057 125.941 102.902C125.23 101.747 124.874 100.336 124.874 98.6675C124.874 97.2675 125.177 96.0075 125.784 94.8875C126.402 93.7558 127.295 92.8633 128.461 92.21C129.628 91.545 131.034 91.2125 132.679 91.2125C134.242 91.2125 135.596 91.4983 136.739 92.07C137.894 92.6417 138.781 93.4933 139.399 94.625C140.029 95.745 140.344 97.145 140.344 98.825C140.344 98.9183 140.338 99.105 140.326 99.385C140.326 99.665 140.315 99.8517 140.291 99.945H129.896ZM135.339 97.1625C135.327 96.7892 135.228 96.4217 135.041 96.06C134.855 95.6867 134.575 95.3833 134.201 95.15C133.828 94.905 133.35 94.7825 132.766 94.7825C132.183 94.7825 131.687 94.8992 131.279 95.1325C130.882 95.3542 130.579 95.6458 130.369 96.0075C130.159 96.3692 130.042 96.7542 130.019 97.1625H135.339Z" fill="white"/>
<path d="M149.253 106.42C147.865 106.42 146.657 106.082 145.631 105.405C144.604 104.717 143.805 103.801 143.233 102.658C142.673 101.503 142.393 100.225 142.393 98.825C142.393 97.425 142.673 96.1533 143.233 95.01C143.805 93.855 144.604 92.9333 145.631 92.245C146.657 91.5567 147.865 91.2125 149.253 91.2125C150.175 91.2125 150.991 91.3583 151.703 91.65C152.415 91.93 152.992 92.2683 153.436 92.665C153.879 93.05 154.147 93.4058 154.241 93.7325V81.92H159.561V106H154.293V103.673C154.071 104.104 153.71 104.536 153.208 104.967C152.706 105.387 152.117 105.732 151.441 106C150.764 106.28 150.035 106.42 149.253 106.42ZM150.881 102.238C151.522 102.238 152.094 102.092 152.596 101.8C153.109 101.508 153.511 101.106 153.803 100.592C154.095 100.067 154.241 99.4783 154.241 98.825C154.241 98.1717 154.095 97.5883 153.803 97.075C153.511 96.55 153.109 96.1417 152.596 95.85C152.094 95.5467 151.522 95.395 150.881 95.395C150.262 95.395 149.702 95.5467 149.201 95.85C148.711 96.1417 148.32 96.55 148.028 97.075C147.748 97.5883 147.608 98.1717 147.608 98.825C147.608 99.4783 147.748 100.067 148.028 100.592C148.32 101.106 148.711 101.508 149.201 101.8C149.702 102.092 150.262 102.238 150.881 102.238Z" fill="white"/>
<path d="M51.2893 114.9H59.2168C60.5351 114.9 61.7543 115.081 62.8743 115.442C64.0059 115.804 64.9159 116.399 65.6043 117.228C66.3043 118.044 66.6543 119.152 66.6543 120.552C66.6543 121.474 66.4793 122.297 66.1293 123.02C65.7909 123.743 65.3359 124.338 64.7643 124.805C64.2043 125.26 63.5918 125.563 62.9268 125.715C63.5101 125.785 64.0759 125.954 64.6243 126.222C65.1843 126.479 65.6859 126.841 66.1293 127.308C66.5843 127.763 66.9401 128.334 67.1968 129.023C67.4651 129.699 67.5993 130.504 67.5993 131.438C67.5993 132.733 67.3076 133.876 66.7243 134.867C66.1526 135.847 65.3126 136.618 64.2043 137.178C63.1076 137.726 61.7601 138 60.1618 138H51.2893V114.9ZM56.5218 133.818H58.9018C59.6484 133.818 60.2551 133.707 60.7218 133.485C61.2001 133.252 61.5501 132.925 61.7718 132.505C61.9934 132.073 62.1043 131.56 62.1043 130.965C62.1043 130.032 61.8126 129.349 61.2293 128.917C60.6576 128.474 59.8526 128.253 58.8143 128.253H56.5218V133.818ZM56.5218 124.158H58.6393C59.2576 124.158 59.7709 124.047 60.1793 123.825C60.5993 123.603 60.9143 123.294 61.1243 122.897C61.3459 122.489 61.4568 122.022 61.4568 121.497C61.4568 120.552 61.1884 119.917 60.6518 119.59C60.1151 119.252 59.3801 119.082 58.4468 119.082H56.5218V124.158Z" fill="white"/>
<path d="M75.5826 138H70.2626V123.632H75.5826V125.855H75.4951C75.5884 125.587 75.8159 125.248 76.1776 124.84C76.5392 124.42 77.0467 124.047 77.7001 123.72C78.3534 123.382 79.1526 123.213 80.0976 123.213C80.7626 123.213 81.3751 123.317 81.9351 123.527C82.4951 123.726 82.9034 123.918 83.1601 124.105L81.0951 128.428C80.9317 128.229 80.6401 128.025 80.2201 127.815C79.8117 127.593 79.2984 127.482 78.6801 127.482C77.9684 127.482 77.3792 127.663 76.9126 128.025C76.4576 128.387 76.1192 128.824 75.8976 129.337C75.6876 129.851 75.5826 130.335 75.5826 130.79V138Z" fill="white"/>
<path d="M95.366 138V135.673C95.261 135.906 94.9927 136.244 94.561 136.688C94.141 137.131 93.581 137.533 92.881 137.895C92.181 138.245 91.3644 138.42 90.431 138.42C89.031 138.42 87.806 138.082 86.756 137.405C85.706 136.717 84.8894 135.801 84.306 134.658C83.7227 133.503 83.431 132.225 83.431 130.825C83.431 129.425 83.7227 128.153 84.306 127.01C84.8894 125.855 85.706 124.933 86.756 124.245C87.806 123.557 89.031 123.213 90.431 123.213C91.3294 123.213 92.1169 123.358 92.7935 123.65C93.4702 123.93 94.0185 124.268 94.4385 124.665C94.8585 125.05 95.1502 125.406 95.3135 125.732V123.632H100.599V138H95.366ZM88.646 130.825C88.646 131.478 88.7977 132.067 89.101 132.592C89.4044 133.106 89.8069 133.508 90.3085 133.8C90.8219 134.092 91.3877 134.238 92.006 134.238C92.6477 134.238 93.2135 134.092 93.7035 133.8C94.1935 133.508 94.5785 133.106 94.8585 132.592C95.1502 132.067 95.296 131.478 95.296 130.825C95.296 130.172 95.1502 129.588 94.8585 129.075C94.5785 128.55 94.1935 128.142 93.7035 127.85C93.2135 127.547 92.6477 127.395 92.006 127.395C91.3877 127.395 90.8219 127.547 90.3085 127.85C89.8069 128.142 89.4044 128.55 89.101 129.075C88.7977 129.588 88.646 130.172 88.646 130.825Z" fill="white"/>
<path d="M113.862 123.213C114.865 123.213 115.845 123.417 116.802 123.825C117.759 124.233 118.546 124.881 119.164 125.768C119.783 126.643 120.092 127.797 120.092 129.232V138H114.754V130.107C114.754 129.081 114.509 128.311 114.019 127.798C113.529 127.273 112.888 127.01 112.094 127.01C111.569 127.01 111.074 127.15 110.607 127.43C110.152 127.698 109.779 128.083 109.487 128.585C109.207 129.075 109.067 129.641 109.067 130.283V138H103.747V123.632H109.067V125.75C109.207 125.365 109.499 124.98 109.942 124.595C110.397 124.198 110.963 123.872 111.639 123.615C112.328 123.347 113.069 123.213 113.862 123.213Z" fill="white"/>
<path d="M129.343 138.42C127.955 138.42 126.748 138.082 125.721 137.405C124.694 136.717 123.895 135.801 123.323 134.658C122.763 133.503 122.483 132.225 122.483 130.825C122.483 129.425 122.763 128.153 123.323 127.01C123.895 125.855 124.694 124.933 125.721 124.245C126.748 123.557 127.955 123.213 129.343 123.213C130.265 123.213 131.082 123.358 131.793 123.65C132.505 123.93 133.083 124.268 133.526 124.665C133.969 125.05 134.238 125.406 134.331 125.732V113.92H139.651V138H134.383V135.673C134.162 136.104 133.8 136.536 133.298 136.967C132.797 137.387 132.208 137.732 131.531 138C130.854 138.28 130.125 138.42 129.343 138.42ZM130.971 134.238C131.613 134.238 132.184 134.092 132.686 133.8C133.199 133.508 133.602 133.106 133.893 132.592C134.185 132.067 134.331 131.478 134.331 130.825C134.331 130.172 134.185 129.588 133.893 129.075C133.602 128.55 133.199 128.142 132.686 127.85C132.184 127.547 131.613 127.395 130.971 127.395C130.353 127.395 129.793 127.547 129.291 127.85C128.801 128.142 128.41 128.55 128.118 129.075C127.838 129.588 127.698 130.172 127.698 130.825C127.698 131.478 127.838 132.067 128.118 132.592C128.41 133.106 128.801 133.508 129.291 133.8C129.793 134.092 130.353 134.238 130.971 134.238Z" fill="white"/>
<path d="M149.174 123.213C150.119 123.213 150.982 123.294 151.764 123.457C152.546 123.609 153.199 123.784 153.724 123.982C154.261 124.181 154.605 124.344 154.757 124.472L153.024 127.605C152.802 127.442 152.388 127.232 151.782 126.975C151.187 126.718 150.522 126.59 149.787 126.59C149.227 126.59 148.754 126.678 148.369 126.853C147.984 127.016 147.792 127.278 147.792 127.64C147.792 128.002 148.002 128.293 148.422 128.515C148.853 128.725 149.472 128.912 150.277 129.075C150.977 129.215 151.688 129.437 152.412 129.74C153.135 130.043 153.736 130.492 154.214 131.087C154.704 131.671 154.949 132.452 154.949 133.432C154.949 134.436 154.733 135.264 154.302 135.917C153.87 136.571 153.298 137.078 152.587 137.44C151.875 137.802 151.105 138.053 150.277 138.193C149.448 138.344 148.643 138.42 147.862 138.42C146.765 138.42 145.808 138.321 144.992 138.122C144.187 137.924 143.533 137.697 143.032 137.44C142.53 137.183 142.18 136.979 141.982 136.827L143.697 133.327C144 133.584 144.496 133.876 145.184 134.202C145.872 134.517 146.602 134.675 147.372 134.675C148.118 134.675 148.696 134.564 149.104 134.342C149.512 134.121 149.717 133.829 149.717 133.467C149.717 133.176 149.617 132.943 149.419 132.768C149.221 132.593 148.941 132.441 148.579 132.312C148.217 132.184 147.78 132.067 147.267 131.962C146.8 131.869 146.304 131.723 145.779 131.525C145.254 131.327 144.758 131.058 144.292 130.72C143.825 130.37 143.446 129.933 143.154 129.408C142.862 128.883 142.717 128.247 142.717 127.5C142.717 126.543 143.026 125.75 143.644 125.12C144.262 124.49 145.062 124.017 146.042 123.702C147.022 123.376 148.066 123.213 149.174 123.213Z" fill="white"/>
<path d="M517.455 62.7075H509.475V72H504.26V48.9H509.475V58.14H517.455V48.9H522.652V72H517.455V62.7075Z" fill="white"/>
<path d="M530.866 65.945C530.901 66.4583 531.064 66.9133 531.356 67.31C531.647 67.7067 532.05 68.0217 532.563 68.255C533.088 68.4767 533.706 68.5875 534.418 68.5875C535.095 68.5875 535.701 68.5175 536.238 68.3775C536.786 68.2375 537.259 68.0625 537.656 67.8525C538.064 67.6425 538.379 67.4267 538.601 67.205L540.666 70.495C540.374 70.81 539.96 71.1192 539.423 71.4225C538.898 71.7142 538.204 71.9533 537.341 72.14C536.477 72.3267 535.386 72.42 534.068 72.42C532.481 72.42 531.07 72.1225 529.833 71.5275C528.596 70.9325 527.622 70.0575 526.911 68.9025C526.199 67.7475 525.843 66.3358 525.843 64.6675C525.843 63.2675 526.147 62.0075 526.753 60.8875C527.372 59.7558 528.264 58.8633 529.431 58.21C530.597 57.545 532.003 57.2125 533.648 57.2125C535.211 57.2125 536.565 57.4983 537.708 58.07C538.863 58.6417 539.75 59.4933 540.368 60.625C540.998 61.745 541.313 63.145 541.313 64.825C541.313 64.9183 541.307 65.105 541.296 65.385C541.296 65.665 541.284 65.8517 541.261 65.945H530.866ZM536.308 63.1625C536.296 62.7892 536.197 62.4217 536.011 62.06C535.824 61.6867 535.544 61.3833 535.171 61.15C534.797 60.905 534.319 60.7825 533.736 60.7825C533.152 60.7825 532.657 60.8992 532.248 61.1325C531.852 61.3542 531.548 61.6458 531.338 62.0075C531.128 62.3692 531.011 62.7542 530.988 63.1625H536.308Z" fill="white"/>
<path d="M555.21 72V69.6725C555.105 69.9058 554.836 70.2442 554.405 70.6875C553.985 71.1308 553.425 71.5333 552.725 71.895C552.025 72.245 551.208 72.42 550.275 72.42C548.875 72.42 547.65 72.0817 546.6 71.405C545.55 70.7167 544.733 69.8008 544.15 68.6575C543.566 67.5025 543.275 66.225 543.275 64.825C543.275 63.425 543.566 62.1533 544.15 61.01C544.733 59.855 545.55 58.9333 546.6 58.245C547.65 57.5567 548.875 57.2125 550.275 57.2125C551.173 57.2125 551.961 57.3583 552.637 57.65C553.314 57.93 553.862 58.2683 554.282 58.665C554.702 59.05 554.994 59.4058 555.157 59.7325V57.6325H560.442V72H555.21ZM548.49 64.825C548.49 65.4783 548.641 66.0675 548.945 66.5925C549.248 67.1058 549.651 67.5083 550.152 67.8C550.666 68.0917 551.231 68.2375 551.85 68.2375C552.491 68.2375 553.057 68.0917 553.547 67.8C554.037 67.5083 554.422 67.1058 554.702 66.5925C554.994 66.0675 555.14 65.4783 555.14 64.825C555.14 64.1717 554.994 63.5883 554.702 63.075C554.422 62.55 554.037 62.1417 553.547 61.85C553.057 61.5467 552.491 61.395 551.85 61.395C551.231 61.395 550.666 61.5467 550.152 61.85C549.651 62.1417 549.248 62.55 548.945 63.075C548.641 63.5883 548.49 64.1717 548.49 64.825Z" fill="white"/>
<path d="M569.138 72H563.801V47.92H569.138V72Z" fill="white"/>
<path d="M571.343 57.6325H573.793V51.735H579.061V57.6325H582.281V62.0075H579.061V66.015C579.061 66.61 579.148 67.0942 579.323 67.4675C579.498 67.8292 579.819 68.01 580.286 68.01C580.601 68.01 580.869 67.94 581.091 67.8C581.312 67.66 581.446 67.5667 581.493 67.52L583.313 71.3C583.232 71.37 582.975 71.4983 582.543 71.685C582.123 71.8717 581.586 72.0408 580.933 72.1925C580.28 72.3442 579.551 72.42 578.746 72.42C577.311 72.42 576.126 72.0175 575.193 71.2125C574.26 70.3958 573.793 69.1417 573.793 67.45V62.0075H571.343V57.6325Z" fill="white"/>
<path d="M595.293 57.2125C596.296 57.2125 597.276 57.4167 598.233 57.825C599.19 58.2333 599.977 58.8808 600.595 59.7675C601.214 60.6425 601.523 61.7975 601.523 63.2325V72H596.203V64.1075C596.203 63.0808 595.97 62.3108 595.503 61.7975C595.048 61.2725 594.424 61.01 593.63 61.01C593.105 61.01 592.604 61.15 592.125 61.43C591.647 61.6983 591.256 62.0833 590.953 62.585C590.661 63.075 590.516 63.6408 590.516 64.2825V72H585.178V47.92H590.516V59.75C590.644 59.365 590.93 58.98 591.373 58.595C591.828 58.1983 592.394 57.8717 593.07 57.615C593.759 57.3467 594.5 57.2125 595.293 57.2125Z" fill="white"/>
<path d="M496.174 80.9H505.589C506.93 80.9 508.126 81.18 509.176 81.74C510.226 82.3 511.054 83.1108 511.661 84.1725C512.279 85.2225 512.589 86.4767 512.589 87.935C512.589 89.3933 512.326 90.5892 511.801 91.5225C511.288 92.4442 510.67 93.1383 509.946 93.605C509.223 94.06 508.552 94.3342 507.934 94.4275L513.551 104H507.671L502.666 94.83H501.406V104H496.174V80.9ZM501.406 91.2075H503.716C504.65 91.2075 505.466 90.98 506.166 90.525C506.866 90.07 507.216 89.265 507.216 88.11C507.216 86.955 506.872 86.1558 506.184 85.7125C505.495 85.2575 504.684 85.03 503.751 85.03H501.406V91.2075Z" fill="white"/>
<path d="M521.244 97.945C521.279 98.4583 521.442 98.9133 521.734 99.31C522.026 99.7067 522.428 100.022 522.942 100.255C523.467 100.477 524.085 100.588 524.797 100.588C525.473 100.588 526.08 100.518 526.617 100.378C527.165 100.238 527.637 100.063 528.034 99.8525C528.442 99.6425 528.757 99.4267 528.979 99.205L531.044 102.495C530.752 102.81 530.338 103.119 529.802 103.423C529.277 103.714 528.582 103.953 527.719 104.14C526.856 104.327 525.765 104.42 524.447 104.42C522.86 104.42 521.448 104.122 520.212 103.527C518.975 102.932 518.001 102.057 517.289 100.902C516.577 99.7475 516.222 98.3358 516.222 96.6675C516.222 95.2675 516.525 94.0075 517.132 92.8875C517.75 91.7558 518.642 90.8633 519.809 90.21C520.976 89.545 522.382 89.2125 524.027 89.2125C525.59 89.2125 526.943 89.4983 528.087 90.07C529.242 90.6417 530.128 91.4933 530.747 92.625C531.377 93.745 531.692 95.145 531.692 96.825C531.692 96.9183 531.686 97.105 531.674 97.385C531.674 97.665 531.662 97.8517 531.639 97.945H521.244ZM526.687 95.1625C526.675 94.7892 526.576 94.4217 526.389 94.06C526.202 93.6867 525.922 93.3833 525.549 93.15C525.176 92.905 524.697 92.7825 524.114 92.7825C523.531 92.7825 523.035 92.8992 522.627 93.1325C522.23 93.3542 521.927 93.6458 521.717 94.0075C521.507 94.3692 521.39 94.7542 521.367 95.1625H526.687Z" fill="white"/>
<path d="M539.761 104H534.423V79.92H539.761V104Z" fill="white"/>
<path d="M554.338 104V101.673C554.233 101.906 553.965 102.244 553.533 102.688C553.113 103.131 552.553 103.533 551.853 103.895C551.153 104.245 550.337 104.42 549.403 104.42C548.003 104.42 546.778 104.082 545.728 103.405C544.678 102.717 543.862 101.801 543.278 100.658C542.695 99.5025 542.403 98.225 542.403 96.825C542.403 95.425 542.695 94.1533 543.278 93.01C543.862 91.855 544.678 90.9333 545.728 90.245C546.778 89.5567 548.003 89.2125 549.403 89.2125C550.302 89.2125 551.089 89.3583 551.766 89.65C552.442 89.93 552.991 90.2683 553.411 90.665C553.831 91.05 554.122 91.4058 554.286 91.7325V89.6325H559.571V104H554.338ZM547.618 96.825C547.618 97.4783 547.77 98.0675 548.073 98.5925C548.377 99.1058 548.779 99.5083 549.281 99.8C549.794 100.092 550.36 100.238 550.978 100.238C551.62 100.238 552.186 100.092 552.676 99.8C553.166 99.5083 553.551 99.1058 553.831 98.5925C554.122 98.0675 554.268 97.4783 554.268 96.825C554.268 96.1717 554.122 95.5883 553.831 95.075C553.551 94.55 553.166 94.1417 552.676 93.85C552.186 93.5467 551.62 93.395 550.978 93.395C550.36 93.395 549.794 93.5467 549.281 93.85C548.779 94.1417 548.377 94.55 548.073 95.075C547.77 95.5883 547.618 96.1717 547.618 96.825Z" fill="white"/>
<path d="M561.722 89.6325H564.172V83.735H569.439V89.6325H572.659V94.0075H569.439V98.015C569.439 98.61 569.527 99.0942 569.702 99.4675C569.877 99.8292 570.197 100.01 570.664 100.01C570.979 100.01 571.247 99.94 571.469 99.8C571.691 99.66 571.825 99.5667 571.872 99.52L573.692 103.3C573.61 103.37 573.353 103.498 572.922 103.685C572.502 103.872 571.965 104.041 571.312 104.192C570.658 104.344 569.929 104.42 569.124 104.42C567.689 104.42 566.505 104.018 565.572 103.213C564.638 102.396 564.172 101.142 564.172 99.45V94.0075H561.722V89.6325Z" fill="white"/>
<path d="M579.896 97.945C579.931 98.4583 580.095 98.9133 580.386 99.31C580.678 99.7067 581.081 100.022 581.594 100.255C582.119 100.477 582.737 100.588 583.449 100.588C584.126 100.588 584.732 100.518 585.269 100.378C585.817 100.238 586.29 100.063 586.686 99.8525C587.095 99.6425 587.41 99.4267 587.631 99.205L589.696 102.495C589.405 102.81 588.991 103.119 588.454 103.423C587.929 103.714 587.235 103.953 586.371 104.14C585.508 104.327 584.417 104.42 583.099 104.42C581.512 104.42 580.101 104.122 578.864 103.527C577.627 102.932 576.653 102.057 575.941 100.902C575.23 99.7475 574.874 98.3358 574.874 96.6675C574.874 95.2675 575.177 94.0075 575.784 92.8875C576.402 91.7558 577.295 90.8633 578.461 90.21C579.628 89.545 581.034 89.2125 582.679 89.2125C584.242 89.2125 585.596 89.4983 586.739 90.07C587.894 90.6417 588.781 91.4933 589.399 92.625C590.029 93.745 590.344 95.145 590.344 96.825C590.344 96.9183 590.338 97.105 590.326 97.385C590.326 97.665 590.315 97.8517 590.291 97.945H579.896ZM585.339 95.1625C585.327 94.7892 585.228 94.4217 585.041 94.06C584.855 93.6867 584.575 93.3833 584.201 93.15C583.828 92.905 583.35 92.7825 582.766 92.7825C582.183 92.7825 581.687 92.8992 581.279 93.1325C580.882 93.3542 580.579 93.6458 580.369 94.0075C580.159 94.3692 580.042 94.7542 580.019 95.1625H585.339Z" fill="white"/>
<path d="M599.253 104.42C597.865 104.42 596.657 104.082 595.631 103.405C594.604 102.717 593.805 101.801 593.233 100.658C592.673 99.5025 592.393 98.225 592.393 96.825C592.393 95.425 592.673 94.1533 593.233 93.01C593.805 91.855 594.604 90.9333 595.631 90.245C596.657 89.5567 597.865 89.2125 599.253 89.2125C600.175 89.2125 600.991 89.3583 601.703 89.65C602.415 89.93 602.992 90.2683 603.436 90.665C603.879 91.05 604.147 91.4058 604.241 91.7325V79.92H609.561V104H604.293V101.673C604.071 102.104 603.71 102.536 603.208 102.967C602.706 103.387 602.117 103.732 601.441 104C600.764 104.28 600.035 104.42 599.253 104.42ZM600.881 100.238C601.522 100.238 602.094 100.092 602.596 99.8C603.109 99.5083 603.511 99.1058 603.803 98.5925C604.095 98.0675 604.241 97.4783 604.241 96.825C604.241 96.1717 604.095 95.5883 603.803 95.075C603.511 94.55 603.109 94.1417 602.596 93.85C602.094 93.5467 601.522 93.395 600.881 93.395C600.262 93.395 599.702 93.5467 599.201 93.85C598.711 94.1417 598.32 94.55 598.028 95.075C597.748 95.5883 597.608 96.1717 597.608 96.825C597.608 97.4783 597.748 98.0675 598.028 98.5925C598.32 99.1058 598.711 99.5083 599.201 99.8C599.702 100.092 600.262 100.238 600.881 100.238Z" fill="white"/>
<path d="M501.289 112.9H509.217C510.535 112.9 511.754 113.081 512.874 113.442C514.006 113.804 514.916 114.399 515.604 115.228C516.304 116.044 516.654 117.152 516.654 118.552C516.654 119.474 516.479 120.297 516.129 121.02C515.791 121.743 515.336 122.338 514.764 122.805C514.204 123.26 513.592 123.563 512.927 123.715C513.51 123.785 514.076 123.954 514.624 124.222C515.184 124.479 515.686 124.841 516.129 125.308C516.584 125.763 516.94 126.334 517.197 127.022C517.465 127.699 517.599 128.504 517.599 129.438C517.599 130.733 517.308 131.876 516.724 132.867C516.153 133.847 515.313 134.618 514.204 135.178C513.108 135.726 511.76 136 510.162 136H501.289V112.9ZM506.522 131.818H508.902C509.648 131.818 510.255 131.707 510.722 131.485C511.2 131.252 511.55 130.925 511.772 130.505C511.993 130.073 512.104 129.56 512.104 128.965C512.104 128.032 511.813 127.349 511.229 126.917C510.658 126.474 509.853 126.253 508.814 126.253H506.522V131.818ZM506.522 122.158H508.639C509.258 122.158 509.771 122.047 510.179 121.825C510.599 121.603 510.914 121.294 511.124 120.897C511.346 120.489 511.457 120.022 511.457 119.497C511.457 118.552 511.188 117.917 510.652 117.59C510.115 117.252 509.38 117.082 508.447 117.082H506.522V122.158Z" fill="white"/>
<path d="M525.583 136H520.263V121.632H525.583V123.855H525.495C525.588 123.587 525.816 123.248 526.178 122.84C526.539 122.42 527.047 122.047 527.7 121.72C528.353 121.382 529.153 121.213 530.098 121.213C530.763 121.213 531.375 121.317 531.935 121.527C532.495 121.726 532.903 121.918 533.16 122.105L531.095 126.427C530.932 126.229 530.64 126.025 530.22 125.815C529.812 125.593 529.298 125.482 528.68 125.482C527.968 125.482 527.379 125.663 526.913 126.025C526.458 126.387 526.119 126.824 525.898 127.338C525.688 127.851 525.583 128.335 525.583 128.79V136Z" fill="white"/>
<path d="M545.366 136V133.673C545.261 133.906 544.993 134.244 544.561 134.688C544.141 135.131 543.581 135.533 542.881 135.895C542.181 136.245 541.364 136.42 540.431 136.42C539.031 136.42 537.806 136.082 536.756 135.405C535.706 134.717 534.889 133.801 534.306 132.658C533.723 131.503 533.431 130.225 533.431 128.825C533.431 127.425 533.723 126.153 534.306 125.01C534.889 123.855 535.706 122.933 536.756 122.245C537.806 121.557 539.031 121.213 540.431 121.213C541.329 121.213 542.117 121.358 542.794 121.65C543.47 121.93 544.019 122.268 544.439 122.665C544.859 123.05 545.15 123.406 545.314 123.732V121.632H550.599V136H545.366ZM538.646 128.825C538.646 129.478 538.798 130.067 539.101 130.592C539.404 131.106 539.807 131.508 540.309 131.8C540.822 132.092 541.388 132.238 542.006 132.238C542.648 132.238 543.214 132.092 543.704 131.8C544.194 131.508 544.579 131.106 544.859 130.592C545.15 130.067 545.296 129.478 545.296 128.825C545.296 128.172 545.15 127.588 544.859 127.075C544.579 126.55 544.194 126.142 543.704 125.85C543.214 125.547 542.648 125.395 542.006 125.395C541.388 125.395 540.822 125.547 540.309 125.85C539.807 126.142 539.404 126.55 539.101 127.075C538.798 127.588 538.646 128.172 538.646 128.825Z" fill="white"/>
<path d="M563.862 121.213C564.865 121.213 565.845 121.417 566.802 121.825C567.759 122.233 568.546 122.881 569.164 123.768C569.783 124.643 570.092 125.797 570.092 127.232V136H564.754V128.107C564.754 127.081 564.509 126.311 564.019 125.798C563.529 125.273 562.888 125.01 562.094 125.01C561.569 125.01 561.074 125.15 560.607 125.43C560.152 125.698 559.779 126.083 559.487 126.585C559.207 127.075 559.067 127.641 559.067 128.283V136H553.747V121.632H559.067V123.75C559.207 123.365 559.499 122.98 559.942 122.595C560.397 122.198 560.963 121.872 561.639 121.615C562.328 121.347 563.069 121.213 563.862 121.213Z" fill="white"/>
<path d="M579.343 136.42C577.955 136.42 576.748 136.082 575.721 135.405C574.694 134.717 573.895 133.801 573.323 132.658C572.763 131.503 572.483 130.225 572.483 128.825C572.483 127.425 572.763 126.153 573.323 125.01C573.895 123.855 574.694 122.933 575.721 122.245C576.748 121.557 577.955 121.213 579.343 121.213C580.265 121.213 581.082 121.358 581.793 121.65C582.505 121.93 583.083 122.268 583.526 122.665C583.969 123.05 584.238 123.406 584.331 123.732V111.92H589.651V136H584.383V133.673C584.162 134.104 583.8 134.536 583.298 134.967C582.797 135.387 582.208 135.732 581.531 136C580.854 136.28 580.125 136.42 579.343 136.42ZM580.971 132.238C581.613 132.238 582.184 132.092 582.686 131.8C583.199 131.508 583.602 131.106 583.893 130.592C584.185 130.067 584.331 129.478 584.331 128.825C584.331 128.172 584.185 127.588 583.893 127.075C583.602 126.55 583.199 126.142 582.686 125.85C582.184 125.547 581.613 125.395 580.971 125.395C580.353 125.395 579.793 125.547 579.291 125.85C578.801 126.142 578.41 126.55 578.118 127.075C577.838 127.588 577.698 128.172 577.698 128.825C577.698 129.478 577.838 130.067 578.118 130.592C578.41 131.106 578.801 131.508 579.291 131.8C579.793 132.092 580.353 132.238 580.971 132.238Z" fill="white"/>
<path d="M599.174 121.213C600.119 121.213 600.982 121.294 601.764 121.457C602.546 121.609 603.199 121.784 603.724 121.982C604.261 122.181 604.605 122.344 604.757 122.472L603.024 125.605C602.803 125.442 602.388 125.232 601.782 124.975C601.187 124.718 600.522 124.59 599.787 124.59C599.227 124.59 598.754 124.678 598.369 124.853C597.984 125.016 597.792 125.278 597.792 125.64C597.792 126.002 598.002 126.293 598.422 126.515C598.853 126.725 599.472 126.912 600.277 127.075C600.977 127.215 601.688 127.437 602.412 127.74C603.135 128.043 603.736 128.492 604.214 129.087C604.704 129.671 604.949 130.452 604.949 131.432C604.949 132.436 604.733 133.264 604.302 133.917C603.87 134.571 603.298 135.078 602.587 135.44C601.875 135.802 601.105 136.053 600.277 136.193C599.448 136.344 598.643 136.42 597.862 136.42C596.765 136.42 595.808 136.321 594.992 136.122C594.187 135.924 593.533 135.697 593.032 135.44C592.53 135.183 592.18 134.979 591.982 134.827L593.697 131.327C594 131.584 594.496 131.876 595.184 132.202C595.872 132.517 596.602 132.675 597.372 132.675C598.118 132.675 598.696 132.564 599.104 132.342C599.513 132.121 599.717 131.829 599.717 131.467C599.717 131.176 599.618 130.943 599.419 130.768C599.221 130.593 598.941 130.441 598.579 130.312C598.217 130.184 597.78 130.067 597.267 129.962C596.8 129.869 596.304 129.723 595.779 129.525C595.254 129.327 594.758 129.058 594.292 128.72C593.825 128.37 593.446 127.933 593.154 127.408C592.863 126.883 592.717 126.247 592.717 125.5C592.717 124.543 593.026 123.75 593.644 123.12C594.262 122.49 595.062 122.017 596.042 121.702C597.022 121.376 598.066 121.213 599.174 121.213Z" fill="white"/>
<path d="M981.104 63.48C982.539 63.48 983.794 63.6375 984.867 63.9525C985.94 64.2675 986.804 64.6 987.457 64.95C988.11 65.3 988.507 65.5333 988.647 65.65L986.127 69.8675C985.94 69.7275 985.619 69.5233 985.164 69.255C984.721 68.9867 984.19 68.7475 983.572 68.5375C982.965 68.3275 982.329 68.2225 981.664 68.2225C980.766 68.2225 980.037 68.3858 979.477 68.7125C978.929 69.0275 978.654 69.5 978.654 70.13C978.654 70.5617 978.8 70.9525 979.092 71.3025C979.395 71.6408 979.85 71.9675 980.457 72.2825C981.075 72.5858 981.857 72.9183 982.802 73.28C983.665 73.595 984.476 73.9683 985.234 74.4C985.993 74.8317 986.658 75.345 987.229 75.94C987.813 76.5233 988.274 77.2 988.612 77.97C988.95 78.74 989.119 79.615 989.119 80.595C989.119 81.7617 988.88 82.7767 988.402 83.64C987.924 84.4917 987.27 85.1975 986.442 85.7575C985.625 86.3175 984.692 86.7317 983.642 87C982.604 87.28 981.524 87.42 980.404 87.42C978.818 87.42 977.394 87.2392 976.134 86.8775C974.886 86.5158 973.877 86.125 973.107 85.705C972.337 85.285 971.876 85.005 971.724 84.865L974.332 80.4725C974.472 80.5775 974.74 80.7467 975.137 80.98C975.545 81.2133 976.041 81.4583 976.624 81.715C977.208 81.96 977.826 82.17 978.479 82.345C979.144 82.52 979.798 82.6075 980.439 82.6075C981.513 82.6075 982.318 82.4033 982.854 81.995C983.391 81.575 983.659 81.0267 983.659 80.35C983.659 79.8483 983.49 79.3992 983.152 79.0025C982.814 78.6058 982.306 78.2325 981.629 77.8825C980.953 77.5208 980.107 77.1417 979.092 76.745C978.077 76.3367 977.126 75.8408 976.239 75.2575C975.364 74.6742 974.653 73.945 974.104 73.07C973.556 72.195 973.282 71.11 973.282 69.815C973.282 68.52 973.644 67.4 974.367 66.455C975.102 65.4983 976.064 64.7633 977.254 64.25C978.456 63.7367 979.739 63.48 981.104 63.48Z" fill="white"/>
<path d="M997.522 94.28H992.254V72.6325H997.574V74.7325C997.738 74.4058 998.047 74.05 998.502 73.665C998.968 73.2683 999.558 72.93 1000.27 72.65C1000.99 72.3583 1001.81 72.2125 1002.72 72.2125C1004.12 72.2125 1005.32 72.5567 1006.31 73.245C1007.31 73.9333 1008.08 74.855 1008.62 76.01C1009.15 77.1533 1009.42 78.425 1009.42 79.825C1009.42 81.225 1009.14 82.5025 1008.56 83.6575C1007.99 84.8008 1007.19 85.7167 1006.15 86.405C1005.12 87.0817 1003.91 87.42 1002.51 87.42C1001.51 87.42 1000.65 87.245 999.937 86.895C999.237 86.5333 998.683 86.1367 998.274 85.705C997.878 85.2617 997.627 84.9175 997.522 84.6725V94.28ZM1004.22 79.825C1004.22 79.1717 1004.08 78.5883 1003.79 78.075C1003.5 77.55 1003.1 77.1417 1002.6 76.85C1002.11 76.5467 1001.55 76.395 1000.93 76.395C1000.29 76.395 999.715 76.5467 999.202 76.85C998.7 77.1417 998.304 77.55 998.012 78.075C997.72 78.5883 997.574 79.1717 997.574 79.825C997.574 80.4783 997.72 81.0675 998.012 81.5925C998.304 82.1058 998.7 82.5083 999.202 82.8C999.715 83.0917 1000.29 83.2375 1000.93 83.2375C1001.55 83.2375 1002.11 83.0917 1002.6 82.8C1003.1 82.5083 1003.5 82.1058 1003.79 81.5925C1004.08 81.0675 1004.22 80.4783 1004.22 79.825Z" fill="white"/>
<path d="M1019.43 87.42C1017.85 87.42 1016.45 87.0992 1015.23 86.4575C1014.02 85.8042 1013.06 84.9117 1012.36 83.78C1011.67 82.6367 1011.33 81.33 1011.33 79.86C1011.33 78.39 1011.67 77.0833 1012.36 75.94C1013.06 74.785 1014.02 73.875 1015.23 73.21C1016.45 72.545 1017.85 72.2125 1019.43 72.2125C1021 72.2125 1022.39 72.545 1023.59 73.21C1024.8 73.875 1025.73 74.785 1026.41 75.94C1027.09 77.0833 1027.43 78.39 1027.43 79.86C1027.43 81.33 1027.09 82.6367 1026.41 83.78C1025.73 84.9117 1024.8 85.8042 1023.59 86.4575C1022.39 87.0992 1021 87.42 1019.43 87.42ZM1019.43 83.045C1020.04 83.045 1020.56 82.9108 1021 82.6425C1021.45 82.3742 1021.79 81.995 1022.04 81.505C1022.28 81.015 1022.4 80.4608 1022.4 79.8425C1022.4 79.2125 1022.28 78.6525 1022.04 78.1625C1021.79 77.6725 1021.45 77.2875 1021 77.0075C1020.56 76.7275 1020.04 76.5875 1019.43 76.5875C1018.82 76.5875 1018.29 76.7275 1017.84 77.0075C1017.39 77.2875 1017.04 77.6725 1016.79 78.1625C1016.54 78.6525 1016.42 79.2125 1016.42 79.8425C1016.42 80.4608 1016.54 81.015 1016.79 81.505C1017.04 81.995 1017.39 82.3742 1017.84 82.6425C1018.29 82.9108 1018.82 83.045 1019.43 83.045Z" fill="white"/>
<path d="M1035.06 87H1029.74V72.6325H1035.06V74.855H1034.97C1035.07 74.5867 1035.29 74.2483 1035.65 73.84C1036.02 73.42 1036.52 73.0467 1037.18 72.72C1037.83 72.3817 1038.63 72.2125 1039.57 72.2125C1040.24 72.2125 1040.85 72.3175 1041.41 72.5275C1041.97 72.7258 1042.38 72.9183 1042.64 73.105L1040.57 77.4275C1040.41 77.2292 1040.12 77.025 1039.7 76.815C1039.29 76.5933 1038.78 76.4825 1038.16 76.4825C1037.45 76.4825 1036.86 76.6633 1036.39 77.025C1035.93 77.3867 1035.6 77.8242 1035.37 78.3375C1035.16 78.8508 1035.06 79.335 1035.06 79.79V87Z" fill="white"/>
<path d="M1043.26 72.6325H1045.71V66.735H1050.97V72.6325H1054.19V77.0075H1050.97V81.015C1050.97 81.61 1051.06 82.0942 1051.24 82.4675C1051.41 82.8292 1051.73 83.01 1052.2 83.01C1052.51 83.01 1052.78 82.94 1053 82.8C1053.23 82.66 1053.36 82.5667 1053.41 82.52L1055.23 86.3C1055.15 86.37 1054.89 86.4983 1054.46 86.685C1054.04 86.8717 1053.5 87.0408 1052.85 87.1925C1052.19 87.3442 1051.46 87.42 1050.66 87.42C1049.22 87.42 1048.04 87.0175 1047.11 86.2125C1046.17 85.3958 1045.71 84.1417 1045.71 82.45V77.0075H1043.26V72.6325Z" fill="white"/>
<path d="M1063.64 72.2125C1064.58 72.2125 1065.44 72.2942 1066.23 72.4575C1067.01 72.6092 1067.66 72.7842 1068.19 72.9825C1068.72 73.1808 1069.07 73.3442 1069.22 73.4725L1067.49 76.605C1067.26 76.4417 1066.85 76.2317 1066.24 75.975C1065.65 75.7183 1064.98 75.59 1064.25 75.59C1063.69 75.59 1063.22 75.6775 1062.83 75.8525C1062.45 76.0158 1062.25 76.2783 1062.25 76.64C1062.25 77.0017 1062.46 77.2933 1062.88 77.515C1063.32 77.725 1063.93 77.9117 1064.74 78.075C1065.44 78.215 1066.15 78.4367 1066.87 78.74C1067.6 79.0433 1068.2 79.4925 1068.68 80.0875C1069.17 80.6708 1069.41 81.4525 1069.41 82.4325C1069.41 83.4358 1069.2 84.2642 1068.76 84.9175C1068.33 85.5708 1067.76 86.0783 1067.05 86.44C1066.34 86.8017 1065.57 87.0525 1064.74 87.1925C1063.91 87.3442 1063.11 87.42 1062.32 87.42C1061.23 87.42 1060.27 87.3208 1059.45 87.1225C1058.65 86.9242 1058 86.6967 1057.49 86.44C1056.99 86.1833 1056.64 85.9792 1056.44 85.8275L1058.16 82.3275C1058.46 82.5842 1058.96 82.8758 1059.65 83.2025C1060.33 83.5175 1061.06 83.675 1061.83 83.675C1062.58 83.675 1063.16 83.5642 1063.57 83.3425C1063.97 83.1208 1064.18 82.8292 1064.18 82.4675C1064.18 82.1758 1064.08 81.9425 1063.88 81.7675C1063.68 81.5925 1063.4 81.4408 1063.04 81.3125C1062.68 81.1842 1062.24 81.0675 1061.73 80.9625C1061.26 80.8692 1060.77 80.7233 1060.24 80.525C1059.72 80.3267 1059.22 80.0583 1058.75 79.72C1058.29 79.37 1057.91 78.9325 1057.62 78.4075C1057.32 77.8825 1057.18 77.2467 1057.18 76.5C1057.18 75.5433 1057.49 74.75 1058.11 74.12C1058.72 73.49 1059.52 73.0175 1060.5 72.7025C1061.48 72.3758 1062.53 72.2125 1063.64 72.2125Z" fill="white"/>
<path d="M978.94 100.485H973.428V95.9H989.668V100.485H984.173V119H978.94V100.485Z" fill="white"/>
<path d="M993.927 112.945C993.962 113.458 994.125 113.913 994.417 114.31C994.708 114.707 995.111 115.022 995.624 115.255C996.149 115.477 996.768 115.588 997.479 115.588C998.156 115.588 998.763 115.518 999.299 115.378C999.848 115.238 1000.32 115.063 1000.72 114.853C1001.13 114.643 1001.44 114.427 1001.66 114.205L1003.73 117.495C1003.44 117.81 1003.02 118.119 1002.48 118.423C1001.96 118.714 1001.27 118.953 1000.4 119.14C999.538 119.327 998.447 119.42 997.129 119.42C995.542 119.42 994.131 119.122 992.894 118.527C991.657 117.932 990.683 117.057 989.972 115.902C989.26 114.747 988.904 113.336 988.904 111.667C988.904 110.267 989.208 109.007 989.814 107.887C990.433 106.756 991.325 105.863 992.492 105.21C993.658 104.545 995.064 104.213 996.709 104.213C998.273 104.213 999.626 104.498 1000.77 105.07C1001.92 105.642 1002.81 106.493 1003.43 107.625C1004.06 108.745 1004.37 110.145 1004.37 111.825C1004.37 111.918 1004.37 112.105 1004.36 112.385C1004.36 112.665 1004.34 112.852 1004.32 112.945H993.927ZM999.369 110.162C999.358 109.789 999.258 109.422 999.072 109.06C998.885 108.687 998.605 108.383 998.232 108.15C997.858 107.905 997.38 107.783 996.797 107.783C996.213 107.783 995.718 107.899 995.309 108.132C994.913 108.354 994.609 108.646 994.399 109.007C994.189 109.369 994.073 109.754 994.049 110.162H999.369Z" fill="white"/>
<path d="M1018.27 119V116.673C1018.17 116.906 1017.9 117.244 1017.47 117.688C1017.05 118.131 1016.49 118.533 1015.79 118.895C1015.09 119.245 1014.27 119.42 1013.34 119.42C1011.94 119.42 1010.71 119.082 1009.66 118.405C1008.61 117.717 1007.79 116.801 1007.21 115.658C1006.63 114.503 1006.34 113.225 1006.34 111.825C1006.34 110.425 1006.63 109.153 1007.21 108.01C1007.79 106.855 1008.61 105.933 1009.66 105.245C1010.71 104.557 1011.94 104.213 1013.34 104.213C1014.23 104.213 1015.02 104.358 1015.7 104.65C1016.37 104.93 1016.92 105.268 1017.34 105.665C1017.76 106.05 1018.05 106.406 1018.22 106.732V104.632H1023.5V119H1018.27ZM1011.55 111.825C1011.55 112.478 1011.7 113.067 1012.01 113.592C1012.31 114.106 1012.71 114.508 1013.21 114.8C1013.73 115.092 1014.29 115.238 1014.91 115.238C1015.55 115.238 1016.12 115.092 1016.61 114.8C1017.1 114.508 1017.48 114.106 1017.76 113.592C1018.05 113.067 1018.2 112.478 1018.2 111.825C1018.2 111.172 1018.05 110.588 1017.76 110.075C1017.48 109.55 1017.1 109.142 1016.61 108.85C1016.12 108.547 1015.55 108.395 1014.91 108.395C1014.29 108.395 1013.73 108.547 1013.21 108.85C1012.71 109.142 1012.31 109.55 1012.01 110.075C1011.7 110.588 1011.55 111.172 1011.55 111.825Z" fill="white"/>
<path d="M1046.64 104.213C1047.72 104.213 1048.68 104.44 1049.51 104.895C1050.34 105.338 1050.98 106.027 1051.45 106.96C1051.93 107.893 1052.17 109.095 1052.17 110.565V119H1046.93V111.37C1046.93 110.367 1046.78 109.556 1046.48 108.938C1046.18 108.319 1045.57 108.01 1044.68 108.01C1044.14 108.01 1043.67 108.15 1043.26 108.43C1042.85 108.71 1042.54 109.101 1042.31 109.603C1042.09 110.093 1041.98 110.682 1041.98 111.37V119H1037.1V111.37C1037.1 110.367 1036.93 109.556 1036.59 108.938C1036.27 108.319 1035.68 108.01 1034.84 108.01C1034.31 108.01 1033.83 108.15 1033.42 108.43C1033.02 108.698 1032.7 109.083 1032.48 109.585C1032.27 110.075 1032.16 110.67 1032.16 111.37V119H1026.88V104.632H1032.16V106.68C1032.3 106.318 1032.61 105.951 1033.07 105.577C1033.55 105.192 1034.14 104.872 1034.84 104.615C1035.54 104.347 1036.28 104.213 1037.06 104.213C1037.92 104.213 1038.63 104.341 1039.2 104.597C1039.77 104.842 1040.24 105.175 1040.6 105.595C1040.97 106.015 1041.27 106.47 1041.49 106.96C1041.66 106.54 1041.98 106.12 1042.45 105.7C1042.94 105.268 1043.55 104.912 1044.27 104.632C1045.01 104.352 1045.8 104.213 1046.64 104.213Z" fill="white"/>
<path d="M1061.69 104.213C1062.63 104.213 1063.5 104.294 1064.28 104.457C1065.06 104.609 1065.71 104.784 1066.24 104.982C1066.77 105.181 1067.12 105.344 1067.27 105.472L1065.54 108.605C1065.32 108.442 1064.9 108.232 1064.3 107.975C1063.7 107.718 1063.04 107.59 1062.3 107.59C1061.74 107.59 1061.27 107.678 1060.88 107.853C1060.5 108.016 1060.31 108.278 1060.31 108.64C1060.31 109.002 1060.52 109.293 1060.94 109.515C1061.37 109.725 1061.99 109.912 1062.79 110.075C1063.49 110.215 1064.2 110.437 1064.93 110.74C1065.65 111.043 1066.25 111.493 1066.73 112.088C1067.22 112.671 1067.46 113.453 1067.46 114.433C1067.46 115.436 1067.25 116.264 1066.82 116.918C1066.38 117.571 1065.81 118.078 1065.1 118.44C1064.39 118.802 1063.62 119.052 1062.79 119.192C1061.96 119.344 1061.16 119.42 1060.38 119.42C1059.28 119.42 1058.32 119.321 1057.51 119.122C1056.7 118.924 1056.05 118.697 1055.55 118.44C1055.04 118.183 1054.69 117.979 1054.5 117.827L1056.21 114.327C1056.51 114.584 1057.01 114.876 1057.7 115.202C1058.39 115.517 1059.12 115.675 1059.89 115.675C1060.63 115.675 1061.21 115.564 1061.62 115.342C1062.03 115.121 1062.23 114.829 1062.23 114.467C1062.23 114.176 1062.13 113.943 1061.93 113.768C1061.74 113.593 1061.45 113.441 1061.09 113.312C1060.73 113.184 1060.29 113.068 1059.78 112.963C1059.31 112.869 1058.82 112.723 1058.29 112.525C1057.77 112.327 1057.27 112.058 1056.81 111.72C1056.34 111.37 1055.96 110.933 1055.67 110.408C1055.38 109.883 1055.23 109.247 1055.23 108.5C1055.23 107.543 1055.54 106.75 1056.16 106.12C1056.78 105.49 1057.58 105.017 1058.56 104.702C1059.54 104.376 1060.58 104.213 1061.69 104.213Z" fill="white"/>
</svg>
